<?xml version="1.0" encoding="UTF-8" standalone="no"?>
<!DOCTYPE svg PUBLIC "-//W3C//DTD SVG 1.1//EN" "http://www.w3.org/Graphics/SVG/1.1/DTD/svg11.dtd">
<svg width="100%" height="100%" viewBox="0 0 935 933" version="1.1" xmlns="http://www.w3.org/2000/svg" xmlns:xlink="http://www.w3.org/1999/xlink" xml:space="preserve" xmlns:serif="http://www.serif.com/" style="fill-rule:evenodd;clip-rule:evenodd;stroke-linecap:round;stroke-linejoin:round;stroke-miterlimit:2;">
    <g id="Mesa-de-trabajo1" serif:id="Mesa de trabajo1" transform="matrix(1.03429,0,0,1.31408,144.801,140.607)">
        <rect x="-140" y="-107" width="904" height="710" style="fill:none;"/>
        <g transform="matrix(3.18235,0,0,2.50477,-1416.44,563.436)">
            <g transform="matrix(0.393288,0,0,0.393288,426.907,-246.136)">
                <path d="M290.918,21.349C292.78,18.735 295.791,17.183 299,17.183C302.209,17.183 305.22,18.735 307.082,21.349C311.528,27.593 316.806,35.005 320.154,39.707L327.678,40.426C331.857,36.441 338.444,30.16 343.992,24.87C346.314,22.656 349.563,21.702 352.713,22.309C355.863,22.916 358.525,25.01 359.858,27.928C363.042,34.901 366.824,43.181 369.222,48.433L376.474,50.562C381.749,47.172 390.327,41.659 397.074,37.323C399.395,35.831 402.296,35.554 404.858,36.58C407.42,37.606 409.328,39.807 409.979,42.49C411.869,50.283 414.273,60.192 415.752,66.287L422.469,69.75C427.852,67.595 436.35,64.193 443.485,61.336C446.443,60.152 449.791,60.472 452.471,62.194C455.151,63.917 456.833,66.829 456.985,70.011C457.35,77.69 457.786,86.832 458.062,92.624L464.002,97.295C469.662,96.205 478.577,94.486 486.096,93.037C489.256,92.428 492.515,93.385 494.843,95.605C497.172,97.826 498.283,101.035 497.825,104.22C496.735,111.8 495.443,120.787 494.623,126.492L499.572,132.203L522.109,132.203C525.318,132.203 528.329,133.756 530.191,136.37C532.052,138.984 532.534,142.337 531.485,145.37C528.978,152.613 526.002,161.212 524.114,166.667L527.892,173.212C533.561,174.305 542.496,176.027 550.022,177.477C553.173,178.085 555.836,180.179 557.169,183.098C558.502,186.017 558.341,189.401 556.737,192.18C552.904,198.818 548.354,206.699 545.468,211.698L547.94,218.84C553.299,220.985 561.747,224.367 568.863,227.216C571.842,228.409 574.06,230.969 574.817,234.088C575.574,237.206 574.775,240.498 572.673,242.924C567.654,248.717 561.695,255.593 557.915,259.956L558.99,267.437C563.846,270.558 571.501,275.477 577.95,279.621C580.649,281.356 582.343,284.29 582.496,287.495C582.649,290.701 581.241,293.782 578.719,295.766C572.694,300.504 565.541,306.129 561.003,309.698L560.644,317.247C564.822,321.23 571.407,327.51 576.955,332.799C579.277,335.014 580.385,338.215 579.928,341.391C579.472,344.568 577.507,347.327 574.654,348.798C567.841,352.31 559.753,356.48 554.623,359.125L552.841,366.469C556.189,371.172 561.467,378.584 565.914,384.828C567.775,387.442 568.257,390.795 567.208,393.828C566.158,396.86 563.706,399.198 560.627,400.102C553.272,402.262 544.542,404.825 539.003,406.451L535.863,413.326C538.261,418.577 542.041,426.854 545.226,433.827C546.559,436.746 546.398,440.129 544.793,442.909C543.188,445.688 540.339,447.519 537.144,447.824C529.514,448.553 520.455,449.418 514.709,449.967L510.325,456.123C511.686,461.733 513.831,470.577 515.638,478.025C516.395,481.143 515.596,484.435 513.495,486.861C511.393,489.286 508.248,490.545 505.054,490.24C497.423,489.511 488.365,488.647 482.619,488.098L477.149,493.313C477.424,499.079 477.857,508.168 478.221,515.825C478.374,519.03 476.967,522.112 474.444,524.095C471.922,526.079 468.595,526.72 465.516,525.816C458.161,523.657 449.431,521.093 443.892,519.467L437.534,523.553C436.713,529.267 435.418,538.273 434.327,545.86C433.87,549.037 431.905,551.796 429.053,553.267C426.2,554.737 422.813,554.737 419.96,553.267C413.147,549.755 405.059,545.585 399.928,542.94L392.912,545.749C391.024,551.204 388.048,559.803 385.541,567.046C384.491,570.079 382.04,572.417 378.961,573.321C375.881,574.225 372.555,573.584 370.033,571.6C364.007,566.862 356.855,561.237 352.317,557.668L344.896,559.099C342.01,564.098 337.46,571.978 333.628,578.616C332.023,581.396 329.173,583.227 325.979,583.532C322.784,583.837 319.639,582.578 317.537,580.153C312.518,574.36 306.559,567.484 302.779,563.12L295.221,563.12C291.441,567.484 285.482,574.36 280.463,580.153C278.361,582.578 275.216,583.837 272.021,583.532C268.827,583.227 265.977,581.396 264.372,578.616C260.54,571.978 255.99,564.098 253.104,559.099L245.683,557.668C241.145,561.237 233.993,566.862 227.967,571.6C225.445,573.584 222.119,574.225 219.039,573.321C215.96,572.417 213.509,570.079 212.459,567.046C209.952,559.803 206.976,551.204 205.088,545.749L198.072,542.94C192.941,545.585 184.853,549.755 178.04,553.267C175.187,554.737 171.8,554.737 168.947,553.267C166.095,551.796 164.13,549.037 163.673,545.86C162.582,538.273 161.287,529.267 160.466,523.553L154.108,519.467C148.569,521.093 139.839,523.657 132.484,525.816C129.405,526.72 126.078,526.079 123.556,524.095C121.033,522.112 119.626,519.03 119.779,515.825C120.143,508.168 120.576,499.079 120.851,493.313L115.381,488.098C109.635,488.647 100.577,489.511 92.946,490.24C89.752,490.545 86.607,489.286 84.505,486.861C82.404,484.435 81.605,481.143 82.362,478.025C84.169,470.577 86.314,461.733 87.675,456.123L83.291,449.967C77.545,449.418 68.486,448.553 60.856,447.824C57.661,447.519 54.812,445.688 53.207,442.909C51.602,440.129 51.441,436.746 52.774,433.827C55.959,426.854 59.739,418.577 62.137,413.326L58.997,406.451C53.458,404.825 44.728,402.262 37.373,400.102C34.294,399.198 31.842,396.86 30.792,393.828C29.743,390.795 30.225,387.442 32.085,384.828C36.533,378.584 41.811,371.172 45.159,366.469L43.377,359.125C38.247,356.48 30.159,352.31 23.346,348.798C20.493,347.327 18.528,344.568 18.072,341.391C17.615,338.215 18.723,335.014 21.045,332.799C26.593,327.51 33.178,321.23 37.356,317.247L36.997,309.698C32.459,306.129 25.306,300.504 19.281,295.766C16.759,293.782 15.351,290.701 15.504,287.495C15.657,284.29 17.351,281.356 20.05,279.621C26.499,275.477 34.154,270.558 39.01,267.437L40.085,259.956C36.305,255.593 30.346,248.717 25.327,242.924C23.225,240.498 22.426,237.206 23.183,234.088C23.94,230.969 26.158,228.409 29.137,227.216C36.253,224.367 44.701,220.985 50.06,218.84L52.532,211.698C49.646,206.699 45.096,198.818 41.263,192.18C39.659,189.401 39.498,186.017 40.831,183.098C42.164,180.179 44.827,178.085 47.978,177.477C55.504,176.027 64.439,174.305 70.108,173.212L73.886,166.667C71.998,161.212 69.022,152.613 66.515,145.37C65.466,142.337 65.948,138.984 67.809,136.37C69.671,133.756 72.682,132.203 75.891,132.203L98.428,132.203L103.377,126.492C102.556,120.778 101.261,111.771 100.17,104.184C99.713,101.008 100.821,97.806 103.144,95.592C105.466,93.377 108.717,92.423 111.868,93.03C119.394,94.481 128.328,96.203 133.998,97.295L139.938,92.624C140.213,86.857 140.646,77.768 141.011,70.112C141.163,66.906 142.857,63.973 145.557,62.238C148.256,60.503 151.629,60.181 154.608,61.373C161.724,64.222 170.172,67.604 175.531,69.75L182.248,66.287C183.609,60.677 185.754,51.834 187.562,44.385C188.318,41.266 190.536,38.706 193.516,37.513C196.495,36.32 199.867,36.642 202.567,38.377C209.015,42.521 216.67,47.441 221.526,50.562L228.778,48.433C231.176,43.182 234.956,34.905 238.14,27.932C239.473,25.013 242.136,22.919 245.287,22.312C248.438,21.704 251.689,22.659 254.011,24.873C259.558,30.163 266.144,36.442 270.322,40.426L277.846,39.707C281.194,35.005 286.472,27.593 290.918,21.349Z"/>
                <clipPath id="_clip1">
                    <path d="M290.918,21.349C292.78,18.735 295.791,17.183 299,17.183C302.209,17.183 305.22,18.735 307.082,21.349C311.528,27.593 316.806,35.005 320.154,39.707L327.678,40.426C331.857,36.441 338.444,30.16 343.992,24.87C346.314,22.656 349.563,21.702 352.713,22.309C355.863,22.916 358.525,25.01 359.858,27.928C363.042,34.901 366.824,43.181 369.222,48.433L376.474,50.562C381.749,47.172 390.327,41.659 397.074,37.323C399.395,35.831 402.296,35.554 404.858,36.58C407.42,37.606 409.328,39.807 409.979,42.49C411.869,50.283 414.273,60.192 415.752,66.287L422.469,69.75C427.852,67.595 436.35,64.193 443.485,61.336C446.443,60.152 449.791,60.472 452.471,62.194C455.151,63.917 456.833,66.829 456.985,70.011C457.35,77.69 457.786,86.832 458.062,92.624L464.002,97.295C469.662,96.205 478.577,94.486 486.096,93.037C489.256,92.428 492.515,93.385 494.843,95.605C497.172,97.826 498.283,101.035 497.825,104.22C496.735,111.8 495.443,120.787 494.623,126.492L499.572,132.203L522.109,132.203C525.318,132.203 528.329,133.756 530.191,136.37C532.052,138.984 532.534,142.337 531.485,145.37C528.978,152.613 526.002,161.212 524.114,166.667L527.892,173.212C533.561,174.305 542.496,176.027 550.022,177.477C553.173,178.085 555.836,180.179 557.169,183.098C558.502,186.017 558.341,189.401 556.737,192.18C552.904,198.818 548.354,206.699 545.468,211.698L547.94,218.84C553.299,220.985 561.747,224.367 568.863,227.216C571.842,228.409 574.06,230.969 574.817,234.088C575.574,237.206 574.775,240.498 572.673,242.924C567.654,248.717 561.695,255.593 557.915,259.956L558.99,267.437C563.846,270.558 571.501,275.477 577.95,279.621C580.649,281.356 582.343,284.29 582.496,287.495C582.649,290.701 581.241,293.782 578.719,295.766C572.694,300.504 565.541,306.129 561.003,309.698L560.644,317.247C564.822,321.23 571.407,327.51 576.955,332.799C579.277,335.014 580.385,338.215 579.928,341.391C579.472,344.568 577.507,347.327 574.654,348.798C567.841,352.31 559.753,356.48 554.623,359.125L552.841,366.469C556.189,371.172 561.467,378.584 565.914,384.828C567.775,387.442 568.257,390.795 567.208,393.828C566.158,396.86 563.706,399.198 560.627,400.102C553.272,402.262 544.542,404.825 539.003,406.451L535.863,413.326C538.261,418.577 542.041,426.854 545.226,433.827C546.559,436.746 546.398,440.129 544.793,442.909C543.188,445.688 540.339,447.519 537.144,447.824C529.514,448.553 520.455,449.418 514.709,449.967L510.325,456.123C511.686,461.733 513.831,470.577 515.638,478.025C516.395,481.143 515.596,484.435 513.495,486.861C511.393,489.286 508.248,490.545 505.054,490.24C497.423,489.511 488.365,488.647 482.619,488.098L477.149,493.313C477.424,499.079 477.857,508.168 478.221,515.825C478.374,519.03 476.967,522.112 474.444,524.095C471.922,526.079 468.595,526.72 465.516,525.816C458.161,523.657 449.431,521.093 443.892,519.467L437.534,523.553C436.713,529.267 435.418,538.273 434.327,545.86C433.87,549.037 431.905,551.796 429.053,553.267C426.2,554.737 422.813,554.737 419.96,553.267C413.147,549.755 405.059,545.585 399.928,542.94L392.912,545.749C391.024,551.204 388.048,559.803 385.541,567.046C384.491,570.079 382.04,572.417 378.961,573.321C375.881,574.225 372.555,573.584 370.033,571.6C364.007,566.862 356.855,561.237 352.317,557.668L344.896,559.099C342.01,564.098 337.46,571.978 333.628,578.616C332.023,581.396 329.173,583.227 325.979,583.532C322.784,583.837 319.639,582.578 317.537,580.153C312.518,574.36 306.559,567.484 302.779,563.12L295.221,563.12C291.441,567.484 285.482,574.36 280.463,580.153C278.361,582.578 275.216,583.837 272.021,583.532C268.827,583.227 265.977,581.396 264.372,578.616C260.54,571.978 255.99,564.098 253.104,559.099L245.683,557.668C241.145,561.237 233.993,566.862 227.967,571.6C225.445,573.584 222.119,574.225 219.039,573.321C215.96,572.417 213.509,570.079 212.459,567.046C209.952,559.803 206.976,551.204 205.088,545.749L198.072,542.94C192.941,545.585 184.853,549.755 178.04,553.267C175.187,554.737 171.8,554.737 168.947,553.267C166.095,551.796 164.13,549.037 163.673,545.86C162.582,538.273 161.287,529.267 160.466,523.553L154.108,519.467C148.569,521.093 139.839,523.657 132.484,525.816C129.405,526.72 126.078,526.079 123.556,524.095C121.033,522.112 119.626,519.03 119.779,515.825C120.143,508.168 120.576,499.079 120.851,493.313L115.381,488.098C109.635,488.647 100.577,489.511 92.946,490.24C89.752,490.545 86.607,489.286 84.505,486.861C82.404,484.435 81.605,481.143 82.362,478.025C84.169,470.577 86.314,461.733 87.675,456.123L83.291,449.967C77.545,449.418 68.486,448.553 60.856,447.824C57.661,447.519 54.812,445.688 53.207,442.909C51.602,440.129 51.441,436.746 52.774,433.827C55.959,426.854 59.739,418.577 62.137,413.326L58.997,406.451C53.458,404.825 44.728,402.262 37.373,400.102C34.294,399.198 31.842,396.86 30.792,393.828C29.743,390.795 30.225,387.442 32.085,384.828C36.533,378.584 41.811,371.172 45.159,366.469L43.377,359.125C38.247,356.48 30.159,352.31 23.346,348.798C20.493,347.327 18.528,344.568 18.072,341.391C17.615,338.215 18.723,335.014 21.045,332.799C26.593,327.51 33.178,321.23 37.356,317.247L36.997,309.698C32.459,306.129 25.306,300.504 19.281,295.766C16.759,293.782 15.351,290.701 15.504,287.495C15.657,284.29 17.351,281.356 20.05,279.621C26.499,275.477 34.154,270.558 39.01,267.437L40.085,259.956C36.305,255.593 30.346,248.717 25.327,242.924C23.225,240.498 22.426,237.206 23.183,234.088C23.94,230.969 26.158,228.409 29.137,227.216C36.253,224.367 44.701,220.985 50.06,218.84L52.532,211.698C49.646,206.699 45.096,198.818 41.263,192.18C39.659,189.401 39.498,186.017 40.831,183.098C42.164,180.179 44.827,178.085 47.978,177.477C55.504,176.027 64.439,174.305 70.108,173.212L73.886,166.667C71.998,161.212 69.022,152.613 66.515,145.37C65.466,142.337 65.948,138.984 67.809,136.37C69.671,133.756 72.682,132.203 75.891,132.203L98.428,132.203L103.377,126.492C102.556,120.778 101.261,111.771 100.17,104.184C99.713,101.008 100.821,97.806 103.144,95.592C105.466,93.377 108.717,92.423 111.868,93.03C119.394,94.481 128.328,96.203 133.998,97.295L139.938,92.624C140.213,86.857 140.646,77.768 141.011,70.112C141.163,66.906 142.857,63.973 145.557,62.238C148.256,60.503 151.629,60.181 154.608,61.373C161.724,64.222 170.172,67.604 175.531,69.75L182.248,66.287C183.609,60.677 185.754,51.834 187.562,44.385C188.318,41.266 190.536,38.706 193.516,37.513C196.495,36.32 199.867,36.642 202.567,38.377C209.015,42.521 216.67,47.441 221.526,50.562L228.778,48.433C231.176,43.182 234.956,34.905 238.14,27.932C239.473,25.013 242.136,22.919 245.287,22.312C248.438,21.704 251.689,22.659 254.011,24.873C259.558,30.163 266.144,36.442 270.322,40.426L277.846,39.707C281.194,35.005 286.472,27.593 290.918,21.349Z"/>
                </clipPath>
                <g clip-path="url(#_clip1)">
                    <path d="M300.047,82.5C420.089,82.5 517.547,179.958 517.547,300C517.547,420.042 420.089,517.5 300.047,517.5C180.006,517.5 82.547,420.042 82.547,300C82.547,179.958 180.006,82.5 300.047,82.5Z" style="fill:white;"/>
                </g>
            </g>
            <g transform="matrix(0.393288,0,0,0.393288,426.907,-246.136)">
                <g>
                    <path d="M347.092,74.49C347.092,74.49 334.99,62.387 322.998,50.395C316.781,44.179 308.349,40.686 299.558,40.686C290.766,40.686 282.334,44.179 276.118,50.395C264.552,61.961 253.047,73.465 253.047,73.465C253.047,73.465 274.474,94.891 288.556,108.974C291.745,112.163 296.071,113.955 300.582,113.955C305.093,113.955 309.419,112.163 312.609,108.974C326.389,95.193 347.092,74.49 347.092,74.49Z"/>
                    <path d="M311.938,62.109C318.633,68.804 318.75,79.557 312.2,86.107C305.649,92.658 294.896,92.541 288.201,85.846C281.507,79.151 281.39,68.398 287.94,61.848C294.49,55.297 305.244,55.414 311.938,62.109Z" style="fill:white;"/>
                    <path d="M311.938,62.109C318.633,68.804 318.75,79.557 312.2,86.107C305.649,92.658 294.896,92.541 288.201,85.846C281.507,79.151 281.39,68.398 287.94,61.848C294.49,55.297 305.244,55.414 311.938,62.109Z" style="fill:none;stroke:white;stroke-width:0.77px;"/>
                </g>
                <g>
                    <path d="M116.655,254.115C124.983,249.641 128.106,239.263 123.633,230.935C114.207,213.39 99.919,186.795 99.919,186.795C99.919,186.795 85.669,194.45 71.302,202.169C63.524,206.347 57.725,213.444 55.18,221.899C52.635,230.353 53.553,239.472 57.731,247.25C65.735,262.148 73.791,277.143 73.791,277.143C73.791,277.143 99.486,263.338 116.655,254.115Z"/>
                    <path d="M101.641,224.025C106.121,232.366 103.134,242.696 94.973,247.08C86.813,251.464 76.55,248.253 72.069,239.912C67.588,231.572 70.576,221.241 78.736,216.857C86.897,212.473 97.16,215.685 101.641,224.025Z" style="fill:white;"/>
                    <path d="M101.641,224.025C106.121,232.366 103.134,242.696 94.973,247.08C86.813,251.464 76.55,248.253 72.069,239.912C67.588,231.572 70.576,221.241 78.736,216.857C86.897,212.473 97.16,215.685 101.641,224.025Z" style="fill:none;stroke:white;stroke-width:0.77px;"/>
                </g>
                <g>
                    <path d="M198.784,460.821C197.515,451.453 188.891,444.888 179.523,446.157C159.787,448.832 129.869,452.886 129.869,452.886C129.869,452.886 131.629,465.867 133.577,480.242C136.408,501.131 155.637,515.771 176.527,512.94C191.547,510.904 205.318,509.038 205.318,509.038C205.318,509.038 201.401,480.133 198.784,460.821Z"/>
                    <path d="M165.34,464.329C174.722,463.058 183.349,469.479 184.593,478.658C185.837,487.838 179.23,496.323 169.848,497.594C160.466,498.866 151.839,492.445 150.595,483.266C149.351,474.086 155.958,465.601 165.34,464.329Z" style="fill:white;"/>
                    <path d="M165.34,464.329C174.722,463.058 183.349,469.479 184.593,478.658C185.837,487.838 179.23,496.323 169.848,497.594C160.466,498.866 151.839,492.445 150.595,483.266C149.351,474.086 155.958,465.601 165.34,464.329Z" style="fill:none;stroke:white;stroke-width:0.77px;"/>
                </g>
                <g>
                    <path d="M426.868,445.14C417.555,443.519 408.691,449.756 407.07,459.07C405.331,469.071 403.134,481.698 401.397,491.679C400.624,496.123 401.648,500.692 404.244,504.381C406.839,508.07 410.794,510.577 415.238,511.351C424.861,513.025 436.905,515.12 446.528,516.794C450.972,517.567 455.541,516.543 459.23,513.948C462.919,511.352 465.426,507.397 466.199,502.953C467.942,492.936 470.148,480.253 471.891,470.236C472.664,465.792 471.64,461.223 469.045,457.534C466.449,453.845 462.494,451.338 458.05,450.565C448.464,448.897 436.473,446.811 426.868,445.14Z"/>
                    <path d="M420.108,478.081C421.731,468.753 430.458,462.469 439.584,464.057C448.711,465.645 454.803,474.507 453.18,483.834C451.557,493.162 442.83,499.446 433.704,497.858C424.577,496.27 418.485,487.408 420.108,478.081Z" style="fill:white;"/>
                    <path d="M420.108,478.081C421.731,468.753 430.458,462.469 439.584,464.057C448.711,465.645 454.803,474.507 453.18,483.834C451.557,493.162 442.83,499.446 433.704,497.858C424.577,496.27 418.485,487.408 420.108,478.081Z" style="fill:none;stroke:white;stroke-width:0.77px;"/>
                </g>
                <g>
                    <path d="M474.074,230.861C469.716,239.25 472.983,249.584 481.371,253.942C499.045,263.125 525.834,277.045 525.834,277.045C525.834,277.045 534.087,261.163 541.982,245.968C545.743,238.73 546.474,230.295 544.016,222.518C541.557,214.741 536.11,208.26 528.872,204.499C513.163,196.337 496.509,187.683 496.509,187.683C496.509,187.683 483.06,213.567 474.074,230.861Z"/>
                    <path d="M503.433,247.258C495.032,242.893 491.679,232.675 495.95,224.455C500.221,216.235 510.509,213.105 518.911,217.47C527.312,221.836 530.665,232.053 526.394,240.274C522.123,248.494 511.834,251.624 503.433,247.258Z" style="fill:white;"/>
                    <path d="M503.433,247.258C495.032,242.893 491.679,232.675 495.95,224.455C500.221,216.235 510.509,213.105 518.911,217.47C527.312,221.836 530.665,232.053 526.394,240.274C522.123,248.494 511.834,251.624 503.433,247.258Z" style="fill:none;stroke:white;stroke-width:0.77px;"/>
                </g>
            </g>
        </g>
        <g transform="matrix(3.18235,0,0,2.50477,-522.199,-77.7855)">
            <g transform="matrix(0.393288,0,0,0.393288,247.768,-97.7473)">
                <circle cx="40" cy="574" r="119" style="stroke:black;stroke-width:0.77px;stroke-miterlimit:1.5;"/>
            </g>
            <g transform="matrix(0.442522,0,0,0.442522,250.972,-128.083)">
                <path d="M43.817,438.233C38.204,434.613 18.416,434.613 12.803,438.233C7.191,441.854 8.995,452.468 10.142,459.959C1.429,461.292 -7.11,463.58 -15.321,466.781C-18.074,459.721 -21.818,449.627 -28.489,449.298C-35.16,448.968 -52.297,458.862 -55.347,464.804C-58.398,470.746 -51.528,479.036 -46.79,484.95C-53.669,490.46 -59.92,496.711 -65.43,503.59C-71.344,498.852 -79.634,491.982 -85.576,495.033C-91.518,498.083 -101.412,515.22 -101.082,521.891C-100.753,528.562 -90.659,532.306 -83.599,535.059C-86.8,543.27 -89.088,551.809 -90.421,560.522C-97.912,559.375 -108.526,557.571 -112.147,563.183C-115.767,568.796 -115.767,588.584 -112.147,594.197C-108.526,599.809 -97.912,598.005 -90.421,596.858C-89.088,605.571 -86.8,614.11 -83.599,622.321C-90.659,625.074 -100.753,628.818 -101.082,635.489C-101.412,642.16 -91.518,659.297 -85.576,662.347C-79.634,665.398 -71.344,658.528 -65.43,653.79C-59.92,660.669 -53.669,666.92 -46.79,672.43C-51.528,678.344 -58.398,686.634 -55.347,692.576C-52.297,698.518 -35.16,708.412 -28.489,708.082C-21.818,707.753 -18.074,697.659 -15.321,690.599C-7.11,693.8 1.429,696.088 10.142,697.421C8.995,704.912 7.191,715.526 12.803,719.147C18.416,722.767 38.204,722.767 43.817,719.147C49.429,715.526 47.625,704.912 46.478,697.421C55.191,696.088 63.73,693.8 71.941,690.599C74.694,697.659 78.438,707.753 85.109,708.082C91.78,708.412 108.917,698.518 111.967,692.576C115.018,686.634 108.148,678.344 103.41,672.43C110.289,666.92 116.54,660.669 122.05,653.79C127.964,658.528 136.254,665.398 142.196,662.347C148.138,659.297 158.032,642.16 157.702,635.489C157.373,628.818 147.279,625.074 140.219,622.321C143.42,614.11 145.708,605.571 147.041,596.858C154.532,598.005 165.146,599.809 168.767,594.197C172.387,588.584 172.387,568.796 168.767,563.183C165.146,557.571 154.532,559.375 147.041,560.522C145.708,551.809 143.42,543.27 140.219,535.059C147.279,532.306 157.373,528.562 157.702,521.891C158.032,515.22 148.138,498.083 142.196,495.033C136.254,491.982 127.964,498.852 122.05,503.59C116.54,496.711 110.289,490.46 103.41,484.95C108.148,479.036 115.018,470.746 111.967,464.804C108.917,458.862 91.78,448.968 85.109,449.298C78.438,449.627 74.694,459.721 71.941,466.781C63.73,463.58 55.191,461.292 46.478,459.959C47.625,452.468 49.429,441.854 43.817,438.233Z" style="stroke:black;stroke-width:0.69px;stroke-miterlimit:1.5;"/>
            </g>
            <g transform="matrix(0.483921,0,0,0.483921,199.132,-5.99242)">
                <path d="M101.641,224.025C106.121,232.366 103.134,242.696 94.973,247.08C86.813,251.464 76.55,248.253 72.069,239.912C67.588,231.572 70.576,221.241 78.736,216.857C86.897,212.473 97.16,215.685 101.641,224.025Z" style="fill:white;stroke:white;stroke-width:0.63px;stroke-linecap:butt;"/>
            </g>
        </g>
    </g>
</svg>
